<svg xmlns="http://www.w3.org/2000/svg" version="1.1" xmlns:xlink="http://www.w3.org/1999/xlink" xmlns:svgjs="http://svgjs.dev/svgjs" width="1500" height="837" viewBox="0 0 1500 837"><g transform="matrix(1,0,0,1,-0.9066481445405543,-0.6018164642012493)"><svg viewBox="0 0 396 221" data-background-color="#61777f" preserveAspectRatio="xMidYMid meet" height="837" width="1500" xmlns="http://www.w3.org/2000/svg" xmlns:xlink="http://www.w3.org/1999/xlink"><g id="tight-bounds" transform="matrix(1,0,0,1,0.23997611519109796,0.1589025550638894)"><svg viewBox="0 0 395.52 220.68219488987222" height="220.68219488987222" width="395.52"><g><svg viewBox="0 0 395.52 220.68219488987222" height="220.68219488987222" width="395.52"><g transform="matrix(1,0,0,1,0,112.7136549815851)"><svg viewBox="0 0 395.52 107.96853990828714" height="107.96853990828714" width="395.52"><g id="textblocktransform"><svg viewBox="0 0 395.52 107.96853990828714" height="107.96853990828714" width="395.52" id="textblock"><g><svg viewBox="0 0 395.52 76.97219230453754" height="76.97219230453754" width="395.52"><g transform="matrix(1,0,0,1,0,0)"><svg width="395.52" viewBox="-0.36761 -21.77687 248.39219000000003 48.3396322780313" height="76.97219230453754" data-palette-color="#ffffff"><path d="M6.797 13.815c-1.366-0.307-2.709-0.79-4.03-1.449-1.329-0.654-2.374-1.493-3.135-2.518v0l3.327-4.541c0.438 0.816 0.983 1.478 1.634 1.986 0.659 0.503 1.525 0.876 2.598 1.117v0c1.008 0.227 1.861 0.23 2.56 0.011 0.705-0.217 1.316-0.763 1.834-1.638 0.524-0.873 0.983-2.188 1.378-3.943v0l5.53-24.617 5.415 1.217-5.837 25.982c-0.818 3.643-2.235 6.102-4.251 7.378-2.009 1.277-4.35 1.616-7.023 1.015zM34.564 19.174c-2.339-0.404-4.32-1.288-5.946-2.651-1.625-1.363-2.777-3.037-3.455-5.022-0.673-1.977-0.82-4.066-0.44-6.266v0c0.376-2.174 1.206-4.081 2.491-5.72 1.284-1.639 2.921-2.831 4.91-3.576 1.988-0.739 4.168-0.904 6.54-0.493v0c2.365 0.409 4.353 1.293 5.965 2.654 1.611 1.368 2.746 3.039 3.406 5.013 0.654 1.973 0.792 4.047 0.417 6.222v0c-0.38 2.201-1.219 4.119-2.517 5.755-1.299 1.643-2.936 2.835-4.91 3.577-1.975 0.741-4.129 0.91-6.461 0.507zM35.461 14.864c1.905 0.329 3.532-0.12 4.881-1.349 1.348-1.222 2.206-2.9 2.575-5.035v0c0.37-2.142 0.087-4.048-0.849-5.718-0.93-1.663-2.365-2.661-4.303-2.996v0c-1.879-0.325-3.508 0.138-4.888 1.388-1.386 1.249-2.267 2.961-2.642 5.135v0c-0.363 2.102-0.061 3.974 0.906 5.616 0.968 1.642 2.408 2.628 4.32 2.959zM66.284 23.573c-1.854-0.218-3.466-0.87-4.835-1.957-1.37-1.08-2.266-2.25-2.69-3.507v0l-0.571 4.01-5.175-0.607 4.291-36.539 5.273 0.619-1.651 14.063-0.704 3.854c0.719-1.265 1.955-2.271 3.707-3.018 1.753-0.754 3.59-1.018 5.51-0.793v0c2.258 0.265 4.162 1.002 5.711 2.211 1.557 1.203 2.676 2.761 3.358 4.674 0.682 1.913 0.882 4.064 0.602 6.454v0c-0.284 2.417-1.05 4.458-2.3 6.124-1.257 1.672-2.812 2.885-4.666 3.64-1.854 0.756-3.807 1.013-5.86 0.772zM65.914 18.999c2.152 0.253 3.891-0.241 5.219-1.482 1.32-1.241 2.109-2.954 2.365-5.139v0c0.261-2.225-0.1-4.093-1.084-5.604-0.985-1.505-2.569-2.386-4.754-2.643v0c-1.887-0.222-3.556 0.244-5.007 1.396-1.445 1.159-2.292 2.802-2.542 4.927v0l-0.041 0.348c-0.167 1.424-0.009 2.734 0.475 3.932 0.477 1.197 1.185 2.17 2.124 2.917 0.938 0.755 2.02 1.204 3.245 1.348zM96.981 25.584l1.349-36.765 5.606 0.205-0.55 15 12.961 0.476 0.55-15 5.596 0.205-1.348 36.765-5.596-0.205 0.625-17.058-12.961-0.476-0.625 17.059zM139.427 26.559c-2.073 0.049-3.997-0.398-5.774-1.343-1.769-0.938-3.202-2.304-4.299-4.099-1.096-1.794-1.673-3.908-1.731-6.34v0c-0.057-2.406 0.353-4.52 1.229-6.341 0.877-1.828 2.153-3.262 3.829-4.303 1.676-1.04 3.667-1.588 5.973-1.642v0c1.333-0.032 2.588 0.172 3.765 0.61 1.177 0.439 2.174 0.992 2.991 1.66 0.823 0.667 1.375 1.331 1.658 1.991v0l0.008-3.862 5.148-0.122 0.547 22.973-5.099 0.122-0.196-4.047c-0.538 1.213-1.549 2.294-3.034 3.243-1.478 0.955-3.15 1.455-5.015 1.5zM140.219 22.039c1.899-0.045 3.483-0.743 4.752-2.094 1.275-1.351 1.887-3.092 1.836-5.225v0l-0.008-0.35c-0.034-1.44-0.368-2.719-1.002-3.837-0.627-1.119-1.464-1.982-2.512-2.591-1.048-0.609-2.189-0.898-3.422-0.869v0c-2.139 0.051-3.776 0.78-4.909 2.188-1.133 1.414-1.674 3.224-1.621 5.43v0c0.053 2.233 0.673 4.028 1.858 5.387 1.179 1.359 2.855 2.013 5.028 1.961zM160.409 25.213l-1.645-22.921 5.396-0.387 0.323 4.498c0.422-1.574 1.198-2.87 2.328-3.886 1.137-1.017 2.47-1.581 3.999-1.691v0c1.064-0.076 1.803-0.029 2.216 0.142v0l-0.357 5.5c-0.314-0.178-0.969-0.231-1.967-0.16v0c-1.563 0.112-2.95 0.713-4.161 1.803-1.212 1.09-1.739 2.735-1.581 4.935v0l0.845 11.78zM192.551 22.584c-1.854 0.215-3.573-0.049-5.155-0.792-1.582-0.736-2.723-1.668-3.425-2.795v0l0.367 4.035-5.176 0.599-4.231-36.546 5.274-0.611 1.629 14.066 0.202 3.913c0.409-1.396 1.38-2.66 2.913-3.79 1.533-1.137 3.259-1.817 5.18-2.04v0c2.258-0.262 4.28 0.018 6.066 0.838 1.792 0.813 3.24 2.071 4.343 3.776 1.103 1.704 1.793 3.752 2.071 6.142v0c0.28 2.417 0.004 4.58-0.829 6.489-0.839 1.916-2.073 3.455-3.704 4.616-1.631 1.162-3.472 1.862-5.525 2.1zM191.139 18.217c2.152-0.249 3.731-1.13 4.738-2.642 0.999-1.512 1.373-3.36 1.119-5.546v0c-0.258-2.225-1.039-3.96-2.344-5.205-1.304-1.238-3.049-1.731-5.235-1.477v0c-1.887 0.219-3.405 1.055-4.551 2.51-1.14 1.461-1.586 3.254-1.34 5.38v0l0.04 0.347c0.165 1.424 0.62 2.663 1.367 3.718 0.74 1.055 1.652 1.839 2.738 2.35 1.087 0.518 2.243 0.707 3.468 0.565zM220.889 18.289c-2.338 0.407-4.502 0.243-6.491-0.494-1.989-0.736-3.637-1.925-4.945-3.564-1.3-1.635-2.141-3.552-2.524-5.753v0c-0.379-2.174-0.239-4.249 0.418-6.224 0.658-1.975 1.797-3.649 3.42-5.021 1.623-1.365 3.62-2.255 5.991-2.667v0c2.364-0.412 4.535-0.248 6.511 0.49 1.977 0.745 3.609 1.936 4.895 3.573 1.28 1.638 2.109 3.544 2.488 5.718v0c0.383 2.2 0.239 4.289-0.431 6.267-0.669 1.984-1.809 3.658-3.419 5.021-1.61 1.363-3.581 2.248-5.913 2.654zM220.282 13.928c1.905-0.332 3.285-1.303 4.142-2.913 0.857-1.604 1.1-3.474 0.728-5.609v0c-0.373-2.141-1.281-3.84-2.725-5.098-1.436-1.252-3.123-1.71-5.06-1.372v0c-1.878 0.327-3.257 1.311-4.135 2.953-0.885 1.643-1.138 3.551-0.759 5.725v0c0.366 2.102 1.281 3.763 2.746 4.983 1.464 1.22 3.152 1.664 5.063 1.331zM238.603 14.413l-4.94-22.443 5.283-1.163 0.97 4.405c0.19-1.619 0.77-3.013 1.741-4.182 0.978-1.171 2.215-1.921 3.713-2.251v0c1.042-0.229 1.779-0.289 2.213-0.18v0l0.442 5.493c-0.336-0.131-0.992-0.089-1.969 0.127v0c-1.53 0.337-2.816 1.132-3.858 2.385-1.042 1.253-1.325 2.957-0.851 5.112v0l2.539 11.534z" opacity="1" transform="matrix(1,0,0,1,0,0)" fill="#ffffff" class="wordmark-text-0" data-fill-palette-color="primary" id="text-0"></path></svg></g></svg></g><g transform="matrix(1,0,0,1,118.31980799999998,100.69776767102732)"><svg viewBox="0 0 158.88038400000002 7.270772237259818" height="7.270772237259818" width="158.88038400000002"><g transform="matrix(1,0,0,1,0,0)"><svg width="158.88038400000002" viewBox="-0.85 -38.1 1077.1799999999998 49.3" height="7.270772237259818" data-palette-color="#ffffff"><path d="M6.15 0L-0.85 0 13.9-35.45 14.4-35.45 29.2 0 22.4 0 20.45-5.05 8-5.05 6.15 0ZM14.1-22.2L13.3-19.4 9.8-9.9 18.6-9.9 14.95-19.4 14.1-22.2ZM38.45 0L32.05 0 32.05-24.9 37.85-24.9 37.97-21.63Q38.95-23.13 40.7-24.31 42.45-25.5 45.3-25.5L45.3-25.5Q49.1-25.5 50.95-23.1 52.8-20.7 52.8-16.45L52.8-16.45 52.8 0 46.4 0 46.4-15.9Q46.4-17.98 45.52-19.26 44.65-20.55 42.85-20.55L42.85-20.55Q41.1-20.55 39.77-19.26 38.45-17.98 38.45-15.9L38.45-15.9 38.45 0ZM69.8 0.6L69.8 0.6Q65.82 0.6 63.32-1.19 60.82-2.98 59.63-5.93 58.45-8.88 58.45-12.35L58.45-12.35Q58.45-15.8 59.77-18.8 61.09-21.8 63.7-23.65 66.3-25.5 70.15-25.5L70.15-25.5Q72.3-25.5 74.05-25.05 75.8-24.6 77.45-23.25L77.45-23.25 75.4-17.95Q74.65-19.07 73.21-19.69 71.77-20.3 70.5-20.3L70.5-20.3Q65.05-20.3 65.05-12.4L65.05-12.4Q65.05-8.25 66.41-6.38 67.77-4.5 70.5-4.5L70.5-4.5Q72.3-4.5 73.67-5.19 75.05-5.88 75.75-6.65L75.75-6.65 77.65-2.2Q76.95-1.45 74.9-0.43 72.84 0.6 69.8 0.6ZM88.89 0L82.74 0 82.74-38.1 88.64-38.1 88.64-25.5 88.52-21.75Q89.52-23.2 91.32-24.35 93.12-25.5 96.09-25.5L96.09-25.5Q99.84-25.5 101.69-23.1 103.54-20.7 103.54-16.45L103.54-16.45 103.54 0 97.14 0 97.14-15.8Q97.14-17.88 96.16-19.16 95.17-20.45 93.39-20.45L93.39-20.45Q91.64-20.45 90.27-19.16 88.89-17.88 88.89-15.8L88.89-15.8 88.89 0ZM121.04 0.5L121.04 0.5Q115.54 0.5 112.54-2.95 109.54-6.4 109.54-12.5L109.54-12.5Q109.54-18.65 112.64-22.08 115.74-25.5 121.24-25.5L121.24-25.5Q126.77-25.5 129.65-21.96 132.54-18.43 132.54-12.5L132.54-12.5Q132.54-6.58 129.55-3.04 126.56 0.5 121.04 0.5ZM121.14-4.5L121.14-4.5Q125.89-4.5 125.89-12.5L125.89-12.5Q125.89-20.55 121.14-20.55L121.14-20.55Q118.79-20.55 117.49-18.69 116.19-16.82 116.19-12.5L116.19-12.5Q116.19-8.2 117.49-6.35 118.79-4.5 121.14-4.5ZM144.34 0L138.09 0 138.09-24.9 143.74-24.9 144.04-20.5Q144.44-21.48 145.27-22.58 146.11-23.68 147.6-24.44 149.09-25.2 151.44-25.2L151.44-25.2Q152.16-25.2 152.71-25.1 153.26-25 153.74-24.8L153.74-24.8 152.34-18.25Q151.54-19.05 149.89-19.05L149.89-19.05Q147.96-19.05 146.74-18.26 145.51-17.48 144.92-16.5 144.34-15.53 144.34-15L144.34-15 144.34 0ZM164.23-28.95L157.23-28.95 157.23-35.6 164.23-35.6 164.23-28.95ZM163.98 0L157.48 0 157.48-24.9 163.98-24.9 163.98 0ZM177.83 0L171.43 0 171.43-24.9 177.23-24.9 177.36-21.63Q178.33-23.13 180.08-24.31 181.83-25.5 184.68-25.5L184.68-25.5Q188.48-25.5 190.33-23.1 192.18-20.7 192.18-16.45L192.18-16.45 192.18 0 185.78 0 185.78-15.9Q185.78-17.98 184.91-19.26 184.03-20.55 182.23-20.55L182.23-20.55Q180.48-20.55 179.16-19.26 177.83-17.98 177.83-15.9L177.83-15.9 177.83 0ZM200.03 9L202.83 4.3Q203.73 4.85 205.02 5.3 206.31 5.75 208.03 5.75L208.03 5.75Q211.23 5.75 212.83 4.09 214.43 2.43 214.43-1.2L214.43-1.2 214.43-5.1Q214.08-3.83 213.33-2.58 212.58-1.33 211.27-0.51 209.96 0.3 207.93 0.3L207.93 0.3Q205.11 0.3 202.82-0.99 200.53-2.27 199.18-5.08 197.83-7.88 197.83-12.4L197.83-12.4Q197.83-17 199.17-19.89 200.5-22.78 202.77-24.14 205.03-25.5 207.78-25.5L207.78-25.5Q210.86-25.5 212.48-23.95 214.11-22.4 214.43-20.6L214.43-20.6 215.13-24.9 220.03-24.9 220.03-1.2Q220.03 4.53 217.14 7.86 214.25 11.2 208.63 11.2L208.63 11.2Q205.61 11.2 203.38 10.44 201.16 9.68 200.03 9L200.03 9ZM209.18-4.6L209.18-4.6Q211.36-4.6 212.59-6.66 213.83-8.72 213.83-12.5L213.83-12.5Q213.83-16.07 212.75-18.26 211.68-20.45 209.38-20.45L209.38-20.45Q208.11-20.45 206.94-19.69 205.78-18.93 205.03-17.18 204.28-15.43 204.28-12.45L204.28-12.45Q204.28-8.4 205.67-6.5 207.06-4.6 209.18-4.6ZM249.73 0L243.33 0 243.33-14.08 232.33-34.85 239.38-34.85 246.7-19.7 253.73-34.85 260.73-34.85 249.73-13.63 249.73 0ZM270.82 0.5L270.82 0.5Q265.32 0.5 262.32-2.95 259.32-6.4 259.32-12.5L259.32-12.5Q259.32-18.65 262.42-22.08 265.52-25.5 271.02-25.5L271.02-25.5Q276.55-25.5 279.44-21.96 282.32-18.43 282.32-12.5L282.32-12.5Q282.32-6.58 279.34-3.04 276.35 0.5 270.82 0.5ZM270.92-4.5L270.92-4.5Q275.67-4.5 275.67-12.5L275.67-12.5Q275.67-20.55 270.92-20.55L270.92-20.55Q268.57-20.55 267.27-18.69 265.97-16.82 265.97-12.5L265.97-12.5Q265.97-8.2 267.27-6.35 268.57-4.5 270.92-4.5ZM295.27 0.6L295.27 0.6Q291.5 0.6 289.71-1.81 287.92-4.23 287.92-8.45L287.92-8.45 287.92-24.9 294.17-24.9 294.17-9Q294.17-6.95 294.92-5.65 295.67-4.35 297.47-4.35L297.47-4.35Q299.25-4.35 300.43-5.65 301.62-6.95 301.62-9L301.62-9 301.62-24.9 307.87-24.9 307.87 0 302.22 0 302.1-3.23Q301.17-1.75 299.58-0.58 298 0.6 295.27 0.6ZM321.27 0L315.02 0 315.02-24.9 320.67-24.9 320.97-20.5Q321.37-21.48 322.2-22.58 323.04-23.68 324.53-24.44 326.02-25.2 328.37-25.2L328.37-25.2Q329.09-25.2 329.64-25.1 330.19-25 330.67-24.8L330.67-24.8 329.27-18.25Q328.47-19.05 326.82-19.05L326.82-19.05Q324.89-19.05 323.67-18.26 322.44-17.48 321.86-16.5 321.27-15.53 321.27-15L321.27-15 321.27 0ZM356.16 0.6L356.16 0.6Q353.44 0.6 350.91-0.51 348.39-1.63 346.38-3.89 344.36-6.15 343.19-9.65 342.01-13.15 342.01-17.9L342.01-17.9Q342.01-23.6 344-27.51 345.99-31.43 349.33-33.44 352.66-35.45 356.71-35.45L356.71-35.45Q359.46-35.45 361.2-34.93 362.94-34.4 363.98-33.68 365.01-32.95 365.66-32.35L365.66-32.35 362.86-27.1Q361.79-28.28 360.64-28.99 359.49-29.7 356.96-29.7L356.96-29.7Q354.41-29.7 352.63-28.23 350.84-26.75 349.9-24.16 348.96-21.58 348.96-18.25L348.96-18.25Q348.96-11.73 351.15-8.41 353.34-5.1 356.41-5.1L356.41-5.1Q358.79-5.1 360.46-5.78 362.14-6.45 362.96-7.3L362.96-7.3 365.71-2.35Q365.01-1.78 363.85-1.09 362.69-0.4 360.83 0.1 358.96 0.6 356.16 0.6ZM375.21 0.7L375.21 0.7Q372.91 0.7 371.4-0.33 369.89-1.35 369.15-3.05 368.41-4.75 368.41-6.8L368.41-6.8Q368.41-7.95 369-9.33 369.59-10.7 371.09-11.95 372.59-13.2 375.31-14 378.04-14.8 382.31-14.8L382.31-14.8 382.31-15.95Q382.31-17.8 381.42-19.03 380.54-20.25 377.86-20.25L377.86-20.25Q375.91-20.25 374.05-19.59 372.19-18.93 371.31-17.95L371.31-17.95 369.31-22.75Q370.81-23.78 373.32-24.64 375.84-25.5 378.91-25.5L378.91-25.5Q382.61-25.5 384.66-24.38 386.71-23.25 387.54-21.19 388.36-19.13 388.36-16.35L388.36-16.35 388.36 0 383.01 0 382.56-3.55Q379.96 0.7 375.21 0.7ZM377.86-4.1L377.86-4.1Q378.99-4.1 380.27-5.01 381.56-5.93 382.31-7.35L382.31-7.35 382.31-10.9Q382.06-10.95 381.77-10.95 381.49-10.95 381.11-10.95L381.11-10.95Q379.74-10.95 378.22-10.64 376.71-10.33 375.66-9.55 374.61-8.78 374.61-7.4L374.61-7.4Q374.61-5.6 375.41-4.85 376.21-4.1 377.86-4.1ZM401.06 0L394.81 0 394.81-24.9 400.46-24.9 400.76-20.5Q401.16-21.48 402-22.58 402.83-23.68 404.32-24.44 405.81-25.2 408.16-25.2L408.16-25.2Q408.88-25.2 409.43-25.1 409.98-25 410.46-24.8L410.46-24.8 409.06-18.25Q408.26-19.05 406.61-19.05L406.61-19.05Q404.68-19.05 403.46-18.26 402.23-17.48 401.65-16.5 401.06-15.53 401.06-15L401.06-15 401.06 0ZM423.76 0.65L423.76 0.65Q419.56 0.65 416.98-1.11 414.41-2.88 413.23-5.79 412.06-8.7 412.06-12.15L412.06-12.15Q412.06-15.78 413.39-18.81 414.73-21.85 417.32-23.68 419.91-25.5 423.66-25.5L423.66-25.5Q429.26-25.5 431.48-22.26 433.71-19.03 433.71-13.1L433.71-13.1Q433.71-12.58 433.68-11.78 433.66-10.98 433.61-10.4L433.61-10.4 418.61-10.4Q418.76-7.45 420.27-5.78 421.78-4.1 424.81-4.1L424.81-4.1Q426.36-4.1 428.13-4.79 429.91-5.48 430.76-6.45L430.76-6.45 432.76-1.7Q431.76-1.03 429.59-0.19 427.43 0.65 423.76 0.65ZM418.56-14.3L418.56-14.3 427.36-14.3Q427.36-16.93 426.89-18.31 426.43-19.7 425.63-20.23 424.83-20.75 423.81-20.75L423.81-20.75Q421.26-20.75 419.98-18.86 418.71-16.98 418.56-14.3ZM449.7 0.65L449.7 0.65Q445.5 0.65 442.93-1.11 440.35-2.88 439.18-5.79 438-8.7 438-12.15L438-12.15Q438-15.78 439.34-18.81 440.68-21.85 443.27-23.68 445.85-25.5 449.6-25.5L449.6-25.5Q455.2-25.5 457.43-22.26 459.65-19.03 459.65-13.1L459.65-13.1Q459.65-12.58 459.63-11.78 459.6-10.98 459.55-10.4L459.55-10.4 444.55-10.4Q444.7-7.45 446.22-5.78 447.73-4.1 450.75-4.1L450.75-4.1Q452.3-4.1 454.08-4.79 455.85-5.48 456.7-6.45L456.7-6.45 458.7-1.7Q457.7-1.03 455.54-0.19 453.38 0.65 449.7 0.65ZM444.5-14.3L444.5-14.3 453.3-14.3Q453.3-16.93 452.84-18.31 452.38-19.7 451.58-20.23 450.78-20.75 449.75-20.75L449.75-20.75Q447.2-20.75 445.93-18.86 444.65-16.98 444.5-14.3ZM471.55 0L465.3 0 465.3-24.9 470.95-24.9 471.25-20.5Q471.65-21.48 472.49-22.58 473.33-23.68 474.81-24.44 476.3-25.2 478.65-25.2L478.65-25.2Q479.38-25.2 479.93-25.1 480.48-25 480.95-24.8L480.95-24.8 479.55-18.25Q478.75-19.05 477.1-19.05L477.1-19.05Q475.18-19.05 473.95-18.26 472.73-17.48 472.14-16.5 471.55-15.53 471.55-15L471.55-15 471.55 0ZM503.7 0L498.7 0 490.75-24.9 497.1-24.9 500.1-13.05 501.4-7.8 502.5-13.05 505.75-24.9 510.95-24.9 514.4-13.05 515.7-7.8 516.85-13.05 519.75-24.9 525.9-24.9 518.05 0 513 0 509-13.55 508.2-17.6 507.4-13.55 503.7 0ZM536.69-28.95L529.69-28.95 529.69-35.6 536.69-35.6 536.69-28.95ZM536.44 0L529.94 0 529.94-24.9 536.44-24.9 536.44 0ZM552.09 0.75L552.09 0.75Q547.87 0.75 546.38-1.45 544.89-3.65 544.89-8.1L544.89-8.1 544.89-19.65 541.64-19.65 541.64-24.9 545.14-24.9 545.49-30.15 550.94-32.5 550.94-24.9 557.09-24.9 557.09-19.65 550.94-19.65 550.94-8.25Q550.94-6.08 551.55-5.24 552.17-4.4 553.24-4.4L553.24-4.4Q554.34-4.4 555.57-4.98 556.79-5.55 557.49-6.15L557.49-6.15 558.69-1.1Q557.92-0.55 556.68-0.14 555.44 0.28 554.18 0.51 552.92 0.75 552.09 0.75ZM569.69 0L563.54 0 563.54-38.1 569.44-38.1 569.44-25.5 569.31-21.75Q570.31-23.2 572.11-24.35 573.91-25.5 576.89-25.5L576.89-25.5Q580.64-25.5 582.49-23.1 584.34-20.7 584.34-16.45L584.34-16.45 584.34 0 577.94 0 577.94-15.8Q577.94-17.88 576.95-19.16 575.96-20.45 574.19-20.45L574.19-20.45Q572.44-20.45 571.06-19.16 569.69-17.88 569.69-15.8L569.69-15.8 569.69 0ZM609.63 0.75L609.63 0.75Q605.41 0.75 603.92-1.45 602.43-3.65 602.43-8.1L602.43-8.1 602.43-19.65 599.18-19.65 599.18-24.9 602.68-24.9 603.03-30.15 608.48-32.5 608.48-24.9 614.63-24.9 614.63-19.65 608.48-19.65 608.48-8.25Q608.48-6.08 609.09-5.24 609.71-4.4 610.78-4.4L610.78-4.4Q611.88-4.4 613.11-4.98 614.33-5.55 615.03-6.15L615.03-6.15 616.23-1.1Q615.46-0.55 614.22-0.14 612.98 0.28 611.72 0.51 610.46 0.75 609.63 0.75ZM627.23 0L621.08 0 621.08-38.1 626.98-38.1 626.98-25.5 626.85-21.75Q627.85-23.2 629.65-24.35 631.45-25.5 634.43-25.5L634.43-25.5Q638.18-25.5 640.03-23.1 641.88-20.7 641.88-16.45L641.88-16.45 641.88 0 635.48 0 635.48-15.8Q635.48-17.88 634.49-19.16 633.5-20.45 631.73-20.45L631.73-20.45Q629.98-20.45 628.6-19.16 627.23-17.88 627.23-15.8L627.23-15.8 627.23 0ZM659.58 0.65L659.58 0.65Q655.38 0.65 652.8-1.11 650.23-2.88 649.05-5.79 647.88-8.7 647.88-12.15L647.88-12.15Q647.88-15.78 649.21-18.81 650.55-21.85 653.14-23.68 655.73-25.5 659.48-25.5L659.48-25.5Q665.08-25.5 667.3-22.26 669.53-19.03 669.53-13.1L669.53-13.1Q669.53-12.58 669.5-11.78 669.48-10.98 669.43-10.4L669.43-10.4 654.43-10.4Q654.58-7.45 656.09-5.78 657.6-4.1 660.63-4.1L660.63-4.1Q662.18-4.1 663.95-4.79 665.73-5.48 666.58-6.45L666.58-6.45 668.58-1.7Q667.58-1.03 665.41-0.19 663.25 0.65 659.58 0.65ZM654.38-14.3L654.38-14.3 663.18-14.3Q663.18-16.93 662.71-18.31 662.25-19.7 661.45-20.23 660.65-20.75 659.63-20.75L659.63-20.75Q657.08-20.75 655.8-18.86 654.53-16.98 654.38-14.3ZM702.17 0L685.42 0 685.42-34.85 691.77-34.85 691.77-5.5 702.17-5.5 702.17 0ZM712.17 0.7L712.17 0.7Q709.87 0.7 708.36-0.33 706.84-1.35 706.11-3.05 705.37-4.75 705.37-6.8L705.37-6.8Q705.37-7.95 705.96-9.33 706.54-10.7 708.04-11.95 709.54-13.2 712.27-14 714.99-14.8 719.27-14.8L719.27-14.8 719.27-15.95Q719.27-17.8 718.38-19.03 717.49-20.25 714.82-20.25L714.82-20.25Q712.87-20.25 711.01-19.59 709.14-18.93 708.27-17.95L708.27-17.95 706.27-22.75Q707.77-23.78 710.28-24.64 712.79-25.5 715.87-25.5L715.87-25.5Q719.57-25.5 721.62-24.38 723.67-23.25 724.49-21.19 725.32-19.13 725.32-16.35L725.32-16.35 725.32 0 719.97 0 719.52-3.55Q716.92 0.7 712.17 0.7ZM714.82-4.1L714.82-4.1Q715.94-4.1 717.23-5.01 718.52-5.93 719.27-7.35L719.27-7.35 719.27-10.9Q719.02-10.95 718.73-10.95 718.44-10.95 718.07-10.95L718.07-10.95Q716.69-10.95 715.18-10.64 713.67-10.33 712.62-9.55 711.57-8.78 711.57-7.4L711.57-7.4Q711.57-5.6 712.37-4.85 713.17-4.1 714.82-4.1ZM740.22 0.75L740.22 0.75Q735.99 0.75 734.5-1.45 733.02-3.65 733.02-8.1L733.02-8.1 733.02-19.65 729.77-19.65 729.77-24.9 733.27-24.9 733.62-30.15 739.07-32.5 739.07-24.9 745.22-24.9 745.22-19.65 739.07-19.65 739.07-8.25Q739.07-6.08 739.68-5.24 740.29-4.4 741.37-4.4L741.37-4.4Q742.47-4.4 743.69-4.98 744.92-5.55 745.62-6.15L745.62-6.15 746.82-1.1Q746.04-0.55 744.8-0.14 743.57 0.28 742.3 0.51 741.04 0.75 740.22 0.75ZM761.06 0.65L761.06 0.65Q756.86 0.65 754.29-1.11 751.71-2.88 750.54-5.79 749.36-8.7 749.36-12.15L749.36-12.15Q749.36-15.78 750.7-18.81 752.04-21.85 754.63-23.68 757.21-25.5 760.96-25.5L760.96-25.5Q766.56-25.5 768.79-22.26 771.01-19.03 771.01-13.1L771.01-13.1Q771.01-12.58 770.99-11.78 770.96-10.98 770.91-10.4L770.91-10.4 755.91-10.4Q756.06-7.45 757.58-5.78 759.09-4.1 762.11-4.1L762.11-4.1Q763.66-4.1 765.44-4.79 767.21-5.48 768.06-6.45L768.06-6.45 770.06-1.7Q769.06-1.03 766.9-0.19 764.74 0.65 761.06 0.65ZM755.86-14.3L755.86-14.3 764.66-14.3Q764.66-16.93 764.2-18.31 763.74-19.7 762.94-20.23 762.14-20.75 761.11-20.75L761.11-20.75Q758.56-20.75 757.29-18.86 756.01-16.98 755.86-14.3ZM783.71 0.45L783.71 0.45Q780.99 0.45 779.25-0.06 777.51-0.58 776.55-1.24 775.59-1.9 775.21-2.35L775.21-2.35 777.06-7.1Q778.16-6.2 779.87-5.33 781.59-4.45 783.86-4.45L783.86-4.45Q785.64-4.45 786.35-5.18 787.06-5.9 787.06-6.75L787.06-6.75Q787.06-7.93 785.44-8.88 783.81-9.83 781.66-10.75L781.66-10.75Q780.39-11.3 778.96-12.15 777.54-13 776.52-14.4 775.51-15.8 775.51-18L775.51-18Q775.51-21.38 777.97-23.39 780.44-25.4 784.96-25.4L784.96-25.4Q787.86-25.4 789.87-24.54 791.89-23.68 792.56-23L792.56-23 790.86-18.5Q789.89-19.25 788.39-19.93 786.89-20.6 785.16-20.6L785.16-20.6Q783.26-20.6 782.51-20.1 781.76-19.6 781.76-18.5L781.76-18.5Q781.76-17.28 783.1-16.49 784.44-15.7 786.31-14.95L786.31-14.95Q789.44-13.73 791.35-11.94 793.26-10.15 793.26-7.4L793.26-7.4Q793.26-5.35 792.31-3.56 791.36-1.78 789.26-0.66 787.16 0.45 783.71 0.45ZM806.96 0.75L806.96 0.75Q802.73 0.75 801.25-1.45 799.76-3.65 799.76-8.1L799.76-8.1 799.76-19.65 796.51-19.65 796.51-24.9 800.01-24.9 800.36-30.15 805.81-32.5 805.81-24.9 811.96-24.9 811.96-19.65 805.81-19.65 805.81-8.25Q805.81-6.08 806.42-5.24 807.03-4.4 808.11-4.4L808.11-4.4Q809.21-4.4 810.43-4.98 811.66-5.55 812.36-6.15L812.36-6.15 813.56-1.1Q812.78-0.55 811.55-0.14 810.31 0.28 809.05 0.51 807.78 0.75 806.96 0.75ZM829.95 0.75L829.95 0.75Q829.05 0.75 827.8 0.53 826.55 0.3 825.4-0.06 824.25-0.43 823.65-0.85L823.65-0.85 826.05-6.8Q826.7-5.88 827.69-5.34 828.68-4.8 829.65-4.8L829.65-4.8Q830.63-4.8 831.6-5.08 832.58-5.35 833.22-6.41 833.85-7.48 833.85-9.85L833.85-9.85 833.85-34.85 840.35-34.85 840.35-10.45Q840.35-7.35 839.4-4.81 838.45-2.27 836.18-0.76 833.9 0.75 829.95 0.75ZM857.6 0.5L857.6 0.5Q852.1 0.5 849.1-2.95 846.1-6.4 846.1-12.5L846.1-12.5Q846.1-18.65 849.2-22.08 852.3-25.5 857.8-25.5L857.8-25.5Q863.33-25.5 866.21-21.96 869.1-18.43 869.1-12.5L869.1-12.5Q869.1-6.58 866.11-3.04 863.13 0.5 857.6 0.5ZM857.7-4.5L857.7-4.5Q862.45-4.5 862.45-12.5L862.45-12.5Q862.45-20.55 857.7-20.55L857.7-20.55Q855.35-20.55 854.05-18.69 852.75-16.82 852.75-12.5L852.75-12.5Q852.75-8.2 854.05-6.35 855.35-4.5 857.7-4.5ZM887.3 0.7L887.3 0.7Q884.6 0.7 882.89-1 881.17-2.7 880.6-4.95L880.6-4.95 880.6 0 875.1 0 875.1-38 881.1-38 881.1-24.9 880.6-20.6Q881-22.3 882.19-23.4 883.37-24.5 884.9-25.03 886.42-25.55 887.85-25.55L887.85-25.55Q892.5-25.55 894.87-22.26 897.25-18.98 897.25-12.55L897.25-12.55Q897.25-8.08 895.91-5.14 894.57-2.2 892.31-0.75 890.05 0.7 887.3 0.7ZM885.85-4.25L885.85-4.25Q887.07-4.25 888.19-5.06 889.3-5.88 890-7.7 890.7-9.53 890.7-12.55L890.7-12.55Q890.7-16.75 889.29-18.6 887.87-20.45 885.95-20.45L885.95-20.45Q883.62-20.45 882.41-18.06 881.2-15.68 881.2-12.15L881.2-12.15Q881.2-8.63 882.44-6.44 883.67-4.25 885.85-4.25ZM929.84 0L913.09 0 913.09-34.85 919.44-34.85 919.44-5.5 929.84-5.5 929.84 0ZM941.64-28.95L934.64-28.95 934.64-35.6 941.64-35.6 941.64-28.95ZM941.39 0L934.89 0 934.89-24.9 941.39-24.9 941.39 0ZM955.64 0.45L955.64 0.45Q952.91 0.45 951.18-0.06 949.44-0.58 948.48-1.24 947.51-1.9 947.14-2.35L947.14-2.35 948.99-7.1Q950.09-6.2 951.8-5.33 953.51-4.45 955.79-4.45L955.79-4.45Q957.56-4.45 958.28-5.18 958.99-5.9 958.99-6.75L958.99-6.75Q958.99-7.93 957.36-8.88 955.74-9.83 953.59-10.75L953.59-10.75Q952.31-11.3 950.89-12.15 949.46-13 948.45-14.4 947.44-15.8 947.44-18L947.44-18Q947.44-21.38 949.9-23.39 952.36-25.4 956.89-25.4L956.89-25.4Q959.79-25.4 961.8-24.54 963.81-23.68 964.49-23L964.49-23 962.79-18.5Q961.81-19.25 960.31-19.93 958.81-20.6 957.09-20.6L957.09-20.6Q955.19-20.6 954.44-20.1 953.69-19.6 953.69-18.5L953.69-18.5Q953.69-17.28 955.03-16.49 956.36-15.7 958.24-14.95L958.24-14.95Q961.36-13.73 963.28-11.94 965.19-10.15 965.19-7.4L965.19-7.4Q965.19-5.35 964.24-3.56 963.29-1.78 961.19-0.66 959.09 0.45 955.64 0.45ZM978.89 0.75L978.89 0.75Q974.66 0.75 973.17-1.45 971.69-3.65 971.69-8.1L971.69-8.1 971.69-19.65 968.44-19.65 968.44-24.9 971.94-24.9 972.29-30.15 977.74-32.5 977.74-24.9 983.89-24.9 983.89-19.65 977.74-19.65 977.74-8.25Q977.74-6.08 978.35-5.24 978.96-4.4 980.04-4.4L980.04-4.4Q981.14-4.4 982.36-4.98 983.59-5.55 984.29-6.15L984.29-6.15 985.49-1.1Q984.71-0.55 983.47-0.14 982.24 0.28 980.97 0.51 979.71 0.75 978.89 0.75ZM996.93-28.95L989.93-28.95 989.93-35.6 996.93-35.6 996.93-28.95ZM996.68 0L990.18 0 990.18-24.9 996.68-24.9 996.68 0ZM1010.53 0L1004.13 0 1004.13-24.9 1009.93-24.9 1010.06-21.63Q1011.03-23.13 1012.78-24.31 1014.53-25.5 1017.38-25.5L1017.38-25.5Q1021.18-25.5 1023.03-23.1 1024.88-20.7 1024.88-16.45L1024.88-16.45 1024.88 0 1018.48 0 1018.48-15.9Q1018.48-17.98 1017.61-19.26 1016.73-20.55 1014.93-20.55L1014.93-20.55Q1013.18-20.55 1011.86-19.26 1010.53-17.98 1010.53-15.9L1010.53-15.9 1010.53 0ZM1032.73 9L1035.53 4.3Q1036.43 4.85 1037.72 5.3 1039 5.75 1040.73 5.75L1040.73 5.75Q1043.93 5.75 1045.53 4.09 1047.13 2.43 1047.13-1.2L1047.13-1.2 1047.13-5.1Q1046.78-3.83 1046.03-2.58 1045.28-1.33 1043.97-0.51 1042.65 0.3 1040.63 0.3L1040.63 0.3Q1037.8 0.3 1035.52-0.99 1033.23-2.27 1031.88-5.08 1030.53-7.88 1030.53-12.4L1030.53-12.4Q1030.53-17 1031.87-19.89 1033.2-22.78 1035.47-24.14 1037.73-25.5 1040.48-25.5L1040.48-25.5Q1043.55-25.5 1045.18-23.95 1046.8-22.4 1047.13-20.6L1047.13-20.6 1047.83-24.9 1052.73-24.9 1052.73-1.2Q1052.73 4.53 1049.84 7.86 1046.95 11.2 1041.33 11.2L1041.33 11.2Q1038.3 11.2 1036.08 10.44 1033.85 9.68 1032.73 9L1032.73 9ZM1041.88-4.6L1041.88-4.6Q1044.05-4.6 1045.29-6.66 1046.53-8.72 1046.53-12.5L1046.53-12.5Q1046.53-16.07 1045.45-18.26 1044.38-20.45 1042.08-20.45L1042.08-20.45Q1040.8-20.45 1039.64-19.69 1038.48-18.93 1037.73-17.18 1036.98-15.43 1036.98-12.45L1036.98-12.45Q1036.98-8.4 1038.37-6.5 1039.75-4.6 1041.88-4.6ZM1066.78 0.45L1066.78 0.45Q1064.05 0.45 1062.31-0.06 1060.58-0.58 1059.61-1.24 1058.65-1.9 1058.28-2.35L1058.28-2.35 1060.13-7.1Q1061.23-6.2 1062.94-5.33 1064.65-4.45 1066.93-4.45L1066.93-4.45Q1068.7-4.45 1069.41-5.18 1070.13-5.9 1070.13-6.75L1070.13-6.75Q1070.13-7.93 1068.5-8.88 1066.88-9.83 1064.73-10.75L1064.73-10.75Q1063.45-11.3 1062.03-12.15 1060.6-13 1059.59-14.4 1058.58-15.8 1058.58-18L1058.58-18Q1058.58-21.38 1061.04-23.39 1063.5-25.4 1068.03-25.4L1068.03-25.4Q1070.93-25.4 1072.94-24.54 1074.95-23.68 1075.63-23L1075.63-23 1073.93-18.5Q1072.95-19.25 1071.45-19.93 1069.95-20.6 1068.23-20.6L1068.23-20.6Q1066.33-20.6 1065.58-20.1 1064.83-19.6 1064.83-18.5L1064.83-18.5Q1064.83-17.28 1066.16-16.49 1067.5-15.7 1069.38-14.95L1069.38-14.95Q1072.5-13.73 1074.41-11.94 1076.33-10.15 1076.33-7.4L1076.33-7.4Q1076.33-5.35 1075.38-3.56 1074.43-1.78 1072.33-0.66 1070.23 0.45 1066.78 0.45Z" opacity="1" transform="matrix(1,0,0,1,0,0)" fill="#ffffff" class="slogan-text-1" data-fill-palette-color="secondary" id="text-1"></path></svg></g></svg></g></svg></g></svg></g><g transform="matrix(1,0,0,1,146.69379869202635,0)"><svg viewBox="0 0 102.1324026159473 107.96853990828714" height="107.96853990828714" width="102.1324026159473"><g><svg xmlns="http://www.w3.org/2000/svg" xmlns:xlink="http://www.w3.org/1999/xlink" version="1.1" x="0" y="0" viewBox="15 16 70 74" enable-background="new 0 0 100 100" xml:space="preserve" height="107.96853990828714" width="102.1324026159473" class="icon-icon-0" data-fill-palette-color="accent" id="icon-0"><g fill="#ffffff" data-fill-palette-color="accent"><path fill="#ffffff" d="M70 58v4c0 9.464-6.996 17.644-16 19.569V56h11v-8H54v-8.7C58.653 37.647 62 33.213 62 28c0-6.617-5.383-12-12-12s-12 5.383-12 12c0 5.213 3.347 9.647 8 11.3V48H35v8h11v25.586C37 79.687 30 71.488 30 62v-4H15v8h7.299c2.005 13.365 13.857 24 27.66 24 13.844 0 25.73-10.635 27.741-24H85v-8H70zM50 24c2.206 0 4 1.794 4 4s-1.794 4-4 4-4-1.794-4-4S47.794 24 50 24z" data-fill-palette-color="accent"></path></g></svg></g></svg></g><g></g></svg></g><defs></defs></svg><rect width="395.52" height="220.68219488987222" fill="none" stroke="none" visibility="hidden"></rect></g></svg></g></svg>